<svg width="130" viewBox="0 0 255 71" fill="none" xmlns="http://www.w3.org/2000/svg">
<path d="M47.9968 24.7884C51.681 24.7884 54.6677 21.8018 54.6677 18.1175C54.6677 14.4333 51.681 11.4466 47.9968 11.4466C44.3126 11.4466 41.3259 14.4333 41.3259 18.1175C41.3259 21.8018 44.3126 24.7884 47.9968 24.7884Z" fill="#01E1AF"/>
<path d="M79.0013 24.7126C77.7126 24.7126 76.6513 24.2578 75.7417 23.4239C74.832 22.5901 74.3772 21.6046 74.3772 20.5433C74.3772 19.4062 74.832 18.4208 75.7417 17.5869C76.6513 16.753 77.7126 16.374 79.0013 16.374C80.29 16.374 81.3513 16.753 82.2609 17.5869C83.1706 18.4208 83.6255 19.4062 83.6255 20.5433C83.6255 21.6046 83.1706 22.5901 82.2609 23.4239C81.3513 24.3336 80.2142 24.7126 79.0013 24.7126ZM79.0013 69.6654C77.8642 69.6654 76.8787 69.3621 76.1207 68.8315C75.3626 68.3009 74.9836 67.6944 74.9836 67.0122V36.3109C74.9836 35.5528 75.3626 34.9464 76.1207 34.4157C76.8787 33.9609 77.7884 33.7335 79.0013 33.7335C80.1384 33.7335 81.048 33.9609 81.8819 34.4157C82.64 34.8706 83.019 35.5528 83.019 36.3109V67.0122C83.019 67.6944 82.64 68.3009 81.8819 68.8315C81.048 69.438 80.0626 69.6654 79.0013 69.6654Z" fill="#002748"/>
<path d="M100.909 69.6654C99.7721 69.6654 98.8624 69.3622 98.1043 68.8315C97.3463 68.3009 96.9673 67.6945 96.9673 67.0122V14.9337C96.9673 14.1757 97.3463 13.5692 98.1043 13.1144C98.8624 12.6595 99.7721 12.3563 100.909 12.3563C102.046 12.3563 103.032 12.5837 103.79 13.1144C104.548 13.5692 104.927 14.1757 104.927 14.9337V48.6672L120.77 34.1126C121.225 33.6577 121.756 33.4303 122.438 33.4303C123.044 33.4303 123.651 33.6577 124.182 34.0367C124.788 34.4158 125.243 34.8706 125.698 35.4771C126.077 36.0835 126.304 36.6141 126.304 37.2964C126.304 37.5996 126.228 37.9028 126.152 38.1302C126.077 38.4335 125.849 38.6609 125.622 38.8883L115.843 47.606L127.744 64.738C128.048 65.2687 128.199 65.7235 128.199 66.1025C128.199 66.7848 127.972 67.3912 127.441 67.9977C126.986 68.6041 126.38 69.1348 125.698 69.5138C125.015 69.8928 124.333 70.1202 123.651 70.1202C122.741 70.1202 122.059 69.7412 121.528 68.9832L110.385 52.5333L104.851 57.5365V67.0122C104.851 67.6945 104.472 68.3009 103.714 68.8315C103.032 69.438 102.046 69.6654 100.909 69.6654Z" fill="#002748"/>
<path d="M154.428 70.2719C151.017 70.2719 147.984 69.6654 145.331 68.3767C142.678 67.088 140.631 65.3445 139.115 63.1461C137.599 60.872 136.841 58.2188 136.841 55.1865V47.985C136.841 45.3318 137.523 42.8302 138.964 40.6319C140.404 38.4335 142.299 36.6142 144.649 35.2497C146.999 33.8852 149.652 33.2787 152.533 33.2787C155.262 33.2787 157.763 33.8852 160.038 35.098C162.312 36.3109 164.131 37.9787 165.571 40.0254C166.936 42.148 167.694 44.5738 167.694 47.3028C167.694 49.4253 167.391 50.9414 166.708 51.8511C166.026 52.7608 165.192 53.2914 164.131 53.5188C163.07 53.7463 161.933 53.8221 160.796 53.8221H144.801V55.5656C144.801 58.0672 145.71 60.1139 147.53 61.63C149.349 63.1461 151.699 63.8284 154.655 63.8284C156.399 63.8284 157.839 63.601 158.976 63.0703C160.113 62.5397 161.023 62.0849 161.781 61.63C162.539 61.1752 163.221 60.9478 163.904 60.9478C164.586 60.9478 165.117 61.1752 165.571 61.5542C166.026 61.9332 166.405 62.4639 166.633 62.9945C166.86 63.5252 167.012 64.0558 167.012 64.5107C167.012 65.2687 166.481 66.1026 165.496 67.0122C164.434 67.9219 162.994 68.68 161.099 69.2864C159.204 69.9687 157.005 70.2719 154.428 70.2719ZM144.801 48.8947H157.384C158.521 48.8947 159.28 48.7431 159.659 48.4398C160.038 48.1366 160.265 47.5302 160.265 46.6205C160.265 45.3318 159.962 44.0431 159.28 42.906C158.597 41.769 157.688 40.8593 156.55 40.2528C155.413 39.6464 154.049 39.2674 152.609 39.2674C151.168 39.2674 149.88 39.5706 148.743 40.177C147.605 40.7835 146.62 41.6173 145.938 42.6786C145.255 43.7399 144.876 44.9528 144.876 46.3931V48.8947H144.801Z" fill="#002748"/>
<path d="M183.841 69.6654C182.703 69.6654 181.718 69.3622 180.96 68.8315C180.202 68.3009 179.823 67.6945 179.823 67.0122V36.3109C179.823 35.5529 180.202 34.9464 180.96 34.4158C181.718 33.9609 182.628 33.7335 183.841 33.7335C184.826 33.7335 185.66 33.9609 186.342 34.4158C187.024 34.8706 187.403 35.5529 187.403 36.3109V39.0399C188.161 37.5996 189.45 36.2351 191.194 35.0222C192.937 33.8093 195.06 33.2029 197.637 33.2029C199.987 33.2029 202.185 33.8851 204.232 35.1738C206.203 36.5383 207.871 38.2819 209.008 40.556C210.221 42.8302 210.827 45.3318 210.827 48.1366V66.9364C210.827 67.7703 210.373 68.4525 209.539 68.9074C208.705 69.3622 207.795 69.5896 206.734 69.5896C205.824 69.5896 204.914 69.3622 204.081 68.9074C203.247 68.4525 202.792 67.7703 202.792 66.9364V48.1366C202.792 46.8479 202.413 45.5592 201.731 44.3463C201.048 43.1334 200.139 42.148 199.002 41.3899C197.865 40.6318 196.576 40.2528 195.136 40.2528C193.923 40.2528 192.786 40.556 191.649 41.2383C190.511 41.8447 189.602 42.7544 188.919 43.9673C188.237 45.1044 187.858 46.5447 187.858 48.2124V67.0122C187.858 67.6945 187.479 68.3009 186.721 68.8315C185.887 69.438 184.902 69.6654 183.841 69.6654Z" fill="#002748"/>
<path d="M236.374 70.2718C234.024 70.2718 231.826 69.5896 229.779 68.1493C227.732 66.709 226.14 64.8897 224.851 62.5397C223.639 60.2655 223.032 57.7639 223.032 55.1107V48.1366C223.032 45.3318 223.639 42.8302 224.851 40.556C226.064 38.2819 227.732 36.5383 229.779 35.1738C231.826 33.8093 234.024 33.2029 236.525 33.2029C238.951 33.2029 240.998 33.8093 242.666 35.0222C244.333 36.2351 245.546 37.5238 246.38 39.0399V14.9337C246.38 14.1757 246.759 13.5692 247.593 13.1144C248.427 12.6595 249.337 12.3563 250.474 12.3563C251.611 12.3563 252.52 12.5837 253.279 13.1144C254.037 13.5692 254.416 14.1757 254.416 14.9337V67.0122C254.416 67.6945 254.037 68.3009 253.279 68.8315C252.52 69.3622 251.611 69.6654 250.474 69.6654C249.488 69.6654 248.654 69.3622 247.972 68.8315C247.214 68.3009 246.835 67.6945 246.835 67.0122V64.359C246.077 65.9509 244.712 67.3154 242.817 68.5283C240.846 69.7412 238.724 70.2718 236.374 70.2718ZM238.648 63.2219C240.088 63.2219 241.453 62.8429 242.59 62.009C243.727 61.1752 244.712 60.2655 245.319 59.3558C246.001 58.3704 246.38 57.5365 246.38 57.0059V48.2882C246.38 46.6205 246.001 45.1802 245.243 44.0431C244.485 42.906 243.5 41.9963 242.362 41.3141C241.225 40.7076 240.013 40.3286 238.724 40.3286C237.284 40.3286 235.995 40.7076 234.858 41.4657C233.645 42.2237 232.735 43.2092 232.053 44.4221C231.371 45.635 231.067 46.9237 231.067 48.2124V55.1865C231.067 56.4752 231.371 57.7639 232.053 59.0526C232.735 60.3413 233.645 61.3268 234.858 62.0848C235.919 62.8429 237.208 63.2219 238.648 63.2219Z" fill="#002748"/>
<path d="M66.2659 24.4852L50.2709 65.0413L49.2854 67.5429C48.4516 69.7412 45.95 70.8025 43.8275 69.8928L43.6 69.817C43.6 69.817 43.6 69.817 43.5242 69.817C42.9936 69.3622 42.5387 68.7557 42.2355 68.0735L26.0131 26.9868C25.1035 24.7885 26.2405 22.2869 28.4389 21.3772C28.9695 21.1498 29.5002 21.074 30.0308 21.074C31.7744 21.074 33.3663 22.1353 34.0485 23.803L44.7371 51.0172C45.7984 53.7462 49.6645 53.7462 50.7258 51.0172L61.8692 22.7417C62.2482 21.832 63.0821 21.3014 64.0675 21.3014C64.3708 21.3014 64.674 21.3772 64.9014 21.453C66.1143 21.9078 66.7208 23.2723 66.2659 24.4852Z" fill="#002748"/>
<path d="M31.6227 46.9237L24.497 65.0413L23.5115 67.5429C23.4357 67.6945 23.3599 67.8461 23.2841 67.9977C23.2083 68.1493 23.1325 68.3009 23.0567 68.3767C22.9051 68.6041 22.6777 68.9074 22.4503 69.059C22.3745 69.1348 22.2228 69.2864 22.147 69.3622C22.147 69.3622 22.1471 69.3622 22.0712 69.3622C21.9954 69.438 21.8438 69.5138 21.6922 69.5896C21.6164 69.6654 21.4648 69.7412 21.389 69.7412C21.3132 69.7412 21.2374 69.817 21.1616 69.817C20.9342 69.8928 20.7825 69.9686 20.5551 69.9686C20.4035 69.9686 20.2519 70.0444 20.1003 70.0444C19.9487 70.0444 19.7971 70.0444 19.6455 70.0444C19.3422 70.0444 18.9632 69.9686 18.66 69.8928C18.4326 69.817 18.281 69.817 18.1293 69.7412L17.9019 69.6654H17.8261C17.2955 69.2106 16.8406 68.6041 16.5374 67.9219L0.31501 26.9868C-0.594658 24.7885 0.542436 22.2869 2.7408 21.3772C3.04402 21.3014 3.34723 21.1498 3.65045 21.1498C3.72626 21.1498 3.87787 21.1498 3.95367 21.074C4.02948 21.074 4.18111 21.074 4.25691 21.074C4.78755 21.074 5.24238 21.1498 5.69722 21.3014C5.77302 21.3014 5.84882 21.3772 5.92462 21.3772C6.00043 21.3772 6.07624 21.453 6.07624 21.453C6.15205 21.453 6.22785 21.5288 6.30365 21.6046C6.37946 21.6804 6.53106 21.7562 6.60687 21.7562C6.68268 21.832 6.7585 21.9078 6.8343 21.9837C6.91011 22.0595 6.9859 22.1353 7.06171 22.2111C7.13752 22.2869 7.21333 22.3627 7.28914 22.4385C7.36495 22.5143 7.44074 22.5901 7.51655 22.6659C7.59235 22.7417 7.66817 22.8175 7.66817 22.8933C7.74397 22.9691 7.81977 23.1207 7.89558 23.1965C7.97138 23.2723 7.97139 23.3481 7.97139 23.3481C8.04719 23.4998 8.12299 23.6514 8.19879 23.7272L18.8874 50.9414C19.9487 53.6704 23.8148 53.6704 24.8761 50.9414L28.9695 40.556L31.6227 46.9237Z" fill="#002748"/>
<path d="M62.6272 13.5692C62.0966 13.5692 61.6418 13.266 61.4902 12.7353C59.8982 6.51928 54.2886 2.19836 47.9209 2.19836C41.5533 2.19836 35.9437 6.51928 34.3517 12.6595C34.2001 13.266 33.5937 13.645 32.9872 13.4934C32.3808 13.3418 32.0018 12.7354 32.1534 12.1289C34.0485 5.00317 40.492 0 47.9209 0C55.3499 0 61.8692 5.00317 63.6885 12.2047C63.8401 12.8111 63.4611 13.4176 62.8547 13.5692C62.8547 13.5692 62.7031 13.5692 62.6272 13.5692Z" fill="#002748"/>
</svg>
