<svg width="24" height="22" viewBox="0 0 24 22" fill="none" xmlns="http://www.w3.org/2000/svg">
<rect x="3" y="1" width="20" height="20" rx="10" fill="#0DFFAA"/>
<path d="M17.929 8.69796C17.929 8.87996 17.894 9.01296 17.824 9.09696L14.359 14.431C14.205 14.669 14.016 14.837 13.792 14.935C13.568 15.033 13.365 15.082 13.183 15.082C13.001 15.082 12.798 15.033 12.574 14.935C12.35 14.837 12.161 14.669 12.007 14.431L8.542 9.09696C8.472 9.01296 8.437 8.87996 8.437 8.69796C8.437 8.37596 8.584 8.06096 8.878 7.75296C9.172 7.43096 9.536 7.26996 9.97 7.26996C10.362 7.26996 10.635 7.39596 10.789 7.64796L13.183 11.344L15.577 7.64796C15.731 7.39596 16.004 7.26996 16.396 7.26996C16.83 7.26996 17.194 7.43096 17.488 7.75296C17.782 8.06096 17.929 8.37596 17.929 8.69796Z" fill="white"/>
</svg>
