<svg width="39" height="39" viewBox="0 0 56 56" fill="none" xmlns="http://www.w3.org/2000/svg">
<rect width="56" height="56" rx="28" fill="#0DFFAA"/>
<path d="M32.9329 38.705C32.5429 38.705 32.2579 38.63 32.0779 38.48L20.6479 31.055C20.1379 30.725 19.7779 30.32 19.5679 29.84C19.3579 29.36 19.2529 28.925 19.2529 28.535C19.2529 28.145 19.3579 27.71 19.5679 27.23C19.7779 26.75 20.1379 26.345 20.6479 26.015L32.0779 18.59C32.2579 18.44 32.5429 18.365 32.9329 18.365C33.6229 18.365 34.2979 18.68 34.9579 19.31C35.6479 19.94 35.9929 20.72 35.9929 21.65C35.9929 22.49 35.7229 23.075 35.1829 23.405L27.2629 28.535L35.1829 33.665C35.7229 33.995 35.9929 34.58 35.9929 35.42C35.9929 36.35 35.6479 37.13 34.9579 37.76C34.2979 38.39 33.6229 38.705 32.9329 38.705Z" fill="white"/>
</svg>
