<svg width="21" viewBox="0 0 26 26" fill="none" xmlns="http://www.w3.org/2000/svg">
<circle cx="13" cy="13" r="13" fill="#08C19D"/>
<path fill-rule="evenodd" clip-rule="evenodd" d="M14.9523 10.2631C14.9515 10.0842 15.0217 9.91239 15.1475 9.78526C15.2733 9.65814 15.4443 9.58614 15.6231 9.58511C15.993 9.58511 16.2927 9.88867 16.2927 10.2631C16.2927 10.6375 15.993 10.941 15.6231 10.941C15.2526 10.941 14.9523 10.6375 14.9523 10.2631ZM12.0793 19.6032L14.2985 17.3574C18.0712 13.5398 17.1676 14.4329 18.7277 12.9528C18.8538 12.8254 19 12.6532 19 12.4731L19 8.35528C19 7.60711 18.248 7 17.5083 7L13.4392 7C13.2611 7 13.0908 7.0715 12.9647 7.19825C10.3373 9.85747 12.2301 7.94252 6.39229 13.8492C6.14085 14.105 6 14.4493 6 14.808C6 15.1667 6.14085 15.511 6.39229 15.7668L10.1838 19.6032C10.3075 19.7288 10.4551 19.8287 10.6177 19.8968C10.7804 19.9649 10.9549 20 11.1313 20C11.3076 20 11.4821 19.9649 11.6448 19.8968C11.8074 19.8287 11.9556 19.7288 12.0793 19.6032Z" fill="white"/>
</svg>
