<svg width="44" height="43" viewBox="0 0 44 43" fill="none" xmlns="http://www.w3.org/2000/svg">
<circle cx="21.75" cy="21.5" r="21" fill="white"/>
<path d="M43.25 21.6308C43.25 9.68154 33.5711 0 21.625 0C9.67893 0 0 9.68154 0 21.6308C0 32.4271 7.90795 41.3759 18.2461 43V27.8837H12.7526V21.6308H18.2461V16.8651C18.2461 11.4443 21.4724 8.44998 26.4139 8.44998C28.7804 8.44998 31.2551 8.87213 31.2551 8.87213V14.1926H28.5276C25.8419 14.1926 25.0039 15.8603 25.0039 17.5707V21.6308H31.0014L30.0422 27.8837H25.0039V43C35.3421 41.3759 43.25 32.4271 43.25 21.6308Z" fill="#99C4E8"/>
</svg>
