<svg width="43" height="42" viewBox="0 0 43 42" fill="none" xmlns="http://www.w3.org/2000/svg">
<circle cx="21.25" cy="21" r="21" fill="#99C4E8"/>
<path d="M21.3783 13.6257C17.2281 13.6257 13.8806 16.9739 13.8806 21.125C13.8806 25.2761 17.2281 28.6243 21.3783 28.6243C25.5284 28.6243 28.8759 25.2761 28.8759 21.125C28.8759 16.9739 25.5284 13.6257 21.3783 13.6257ZM21.3783 26.0005C18.6963 26.0005 16.5038 23.8141 16.5038 21.125C16.5038 18.4359 18.6898 16.2495 21.3783 16.2495C24.0667 16.2495 26.2527 18.4359 26.2527 21.125C26.2527 23.8141 24.0602 26.0005 21.3783 26.0005ZM30.9314 13.3189C30.9314 14.2914 30.1484 15.0681 29.1826 15.0681C28.2103 15.0681 27.4338 14.2849 27.4338 13.3189C27.4338 12.3529 28.2169 11.5697 29.1826 11.5697C30.1484 11.5697 30.9314 12.3529 30.9314 13.3189ZM35.8972 15.0942C35.7863 12.7511 35.2512 10.6755 33.535 8.96551C31.8254 7.25548 29.7503 6.72028 27.4077 6.6028C24.9933 6.46573 17.7567 6.46573 15.3423 6.6028C13.0062 6.71375 10.9311 7.24895 9.21496 8.95898C7.49879 10.669 6.97023 12.7445 6.85277 15.0877C6.71574 17.5026 6.71574 24.7409 6.85277 27.1558C6.96371 29.4989 7.49879 31.5745 9.21496 33.2845C10.9311 34.9945 12.9997 35.5297 15.3423 35.6472C17.7567 35.7843 24.9933 35.7843 27.4077 35.6472C29.7503 35.5362 31.8254 35.001 33.535 33.2845C35.2447 31.5745 35.7798 29.4989 35.8972 27.1558C36.0343 24.7409 36.0343 17.5091 35.8972 15.0942ZM32.7781 29.7469C32.2691 31.0262 31.2838 32.0118 29.9983 32.5274C28.0733 33.291 23.5055 33.1148 21.3783 33.1148C19.251 33.1148 14.6767 33.2845 12.7582 32.5274C11.4793 32.0183 10.4939 31.0327 9.97843 29.7469C9.21496 27.8215 9.39115 23.2527 9.39115 21.125C9.39115 18.9973 9.22149 14.4219 9.97843 12.5031C10.4874 11.2238 11.4727 10.2382 12.7582 9.72262C14.6832 8.95898 19.251 9.13521 21.3783 9.13521C23.5055 9.13521 28.0798 8.96551 29.9983 9.72262C31.2773 10.2317 32.2626 11.2173 32.7781 12.5031C33.5416 14.4285 33.3654 18.9973 33.3654 21.125C33.3654 23.2527 33.5416 27.8281 32.7781 29.7469Z" fill="white"/>
</svg>
