<svg width="100" viewBox="0 0 100 101" fill="none" xmlns="http://www.w3.org/2000/svg">
<path d="M49.988 100.877C77.5956 100.877 99.976 78.2947 99.976 50.4384C99.976 22.582 77.5956 0 49.988 0C22.3804 0 0 22.582 0 50.4384C0 78.2947 22.3804 100.877 49.988 100.877Z" fill="#0DFFAA"/>
<path d="M79.8579 40.9359L65.4515 77.4641L64.5639 79.7172C63.8128 81.6972 61.5597 82.6531 59.6479 81.8338L59.4431 81.7655C59.4431 81.7655 59.4431 81.7655 59.3748 81.7655C58.8969 81.3559 58.4872 80.8096 58.2141 80.1952L43.6028 43.189C42.7835 41.209 43.8076 38.9558 45.7877 38.1365C46.2656 37.9317 46.7436 37.8634 47.2215 37.8634C48.7919 37.8634 50.2257 38.8193 50.8402 40.3214L60.4672 64.8328C61.4231 67.2908 64.9052 67.2908 65.8611 64.8328L75.8978 39.3655C76.2392 38.5462 76.9903 38.0682 77.8779 38.0682C78.151 38.0682 78.4241 38.1365 78.6289 38.2048C79.7214 38.6145 80.2676 39.8434 79.8579 40.9359Z" fill="white"/>
<path d="M79.5388 41.0725L65.1324 77.6007L64.2448 79.8538C63.4937 81.8338 61.2406 82.7897 59.3288 81.9704L59.124 81.9021C59.124 81.9021 59.124 81.9021 59.0557 81.9021C58.5778 81.4924 58.1681 80.9462 57.895 80.3317L43.2837 43.3256C42.4644 41.3456 43.4886 39.0924 45.4686 38.2731C45.9465 38.0683 46.4245 38 46.9024 38C48.4728 38 49.9066 38.9559 50.5211 40.458L60.1481 64.9694C61.104 67.4274 64.5862 67.4274 65.542 64.9694L75.5788 39.5021C75.9201 38.6828 76.6712 38.2048 77.5588 38.2048C77.8319 38.2048 78.105 38.2731 78.3098 38.3414C79.4023 38.751 79.9485 39.98 79.5388 41.0725Z" fill="white"/>
<path d="M48.6553 61.1459L42.2373 77.4641L41.3497 79.7172C41.2814 79.8538 41.2131 79.9903 41.1448 80.1269C41.0766 80.2634 41.0083 80.4 40.94 80.4683C40.8035 80.6731 40.5986 80.9462 40.3938 81.0828C40.3255 81.151 40.189 81.2876 40.1207 81.3559C40.1207 81.3559 40.1207 81.3559 40.0524 81.3559C39.9841 81.4242 39.8476 81.4924 39.711 81.5607C39.6427 81.629 39.5062 81.6973 39.4379 81.6973C39.3696 81.6973 39.3014 81.7655 39.2331 81.7655C39.0282 81.8338 38.8917 81.9021 38.6869 81.9021C38.5503 81.9021 38.4138 81.9704 38.2772 81.9704C38.1406 81.9704 38.0041 81.9704 37.8675 81.9704C37.5944 81.9704 37.253 81.9021 36.9799 81.8338C36.7751 81.7655 36.6386 81.7655 36.502 81.6973L36.2972 81.629H36.2289C35.751 81.2193 35.3413 80.6731 35.0682 80.0586L20.5252 43.0525C19.7059 41.0724 20.73 38.8193 22.71 38C22.9832 37.9317 23.2563 37.7951 23.5294 37.7951C23.5976 37.7951 23.7342 37.7951 23.8025 37.7269C23.8708 37.7269 24.0073 37.7269 24.0756 37.7269C24.5535 37.7269 24.9632 37.7951 25.3728 37.9317C25.4411 37.9317 25.5094 38 25.5777 38C25.646 38 25.7142 38.0683 25.7142 38.0683C25.7825 38.0683 25.8508 38.1365 25.9191 38.2048C25.9873 38.2731 26.1239 38.3414 26.1922 38.3414C26.2604 38.4096 26.3287 38.4779 26.397 38.5462C26.4653 38.6145 26.5336 38.6827 26.6018 38.751C26.6701 38.8193 26.7384 38.8876 26.8067 38.9559C26.8749 39.0241 26.9432 39.0924 27.0115 39.1607C27.0798 39.229 27.1481 39.2972 27.1481 39.3655C27.2163 39.4338 27.2846 39.5703 27.3529 39.6386C27.4212 39.7069 27.4212 39.7752 27.4212 39.7752C27.4894 39.9117 27.5577 40.0483 27.626 40.1166L37.253 64.8328C38.2089 67.2908 41.6911 67.2908 42.6469 64.8328L46.3339 55.4789L48.6553 61.1459Z" fill="white"/>
<path d="M63.4032 41.2089C66.7215 41.2089 69.4115 38.5189 69.4115 35.2006C69.4115 31.8822 66.7215 29.1922 63.4032 29.1922C60.0848 29.1922 57.3948 31.8822 57.3948 35.2006C57.3948 38.5189 60.0848 41.2089 63.4032 41.2089Z" fill="white"/>
<path d="M76.5806 31.104C76.1027 31.104 75.693 30.8309 75.5565 30.3529C74.1227 24.7542 69.0702 20.8624 63.3349 20.8624C57.5996 20.8624 52.5471 24.7542 51.1133 30.2846C50.9767 30.8309 50.4305 31.1723 49.8843 31.0357C49.3381 30.8991 48.9967 30.3529 49.1333 29.8067C50.8402 23.3887 56.6437 18.8824 63.3349 18.8824C70.026 18.8824 75.8979 23.3887 77.5365 29.875C77.6731 30.4212 77.3317 30.9674 76.7855 31.104C76.7855 31.104 76.7172 31.104 76.5806 31.104Z" fill="white"/>
</svg>
