<svg width="21"  viewBox="0 0 26 26" fill="none" xmlns="http://www.w3.org/2000/svg">
<circle cx="13" cy="13" r="13" fill="#08C19D"/>
<g clip-path="url(#clip0_507_179)">
<path d="M7.6962 9.61999C7.6962 8.72356 8.04682 7.86384 8.67094 7.22997C9.29506 6.5961 10.1416 6.23999 11.0242 6.23999C11.9068 6.23999 12.7533 6.5961 13.3774 7.22997C14.0016 7.86384 14.3522 8.72356 14.3522 9.61999C14.3522 10.5164 14.0016 11.3761 13.3774 12.01C12.7533 12.6439 11.9068 13 11.0242 13C10.1416 13 9.29506 12.6439 8.67094 12.01C8.04682 11.3761 7.6962 10.5164 7.6962 9.61999ZM5.2002 18.9757C5.2002 16.3747 7.275 14.2675 9.836 14.2675H12.2124C14.7734 14.2675 16.8482 16.3747 16.8482 18.9757C16.8482 19.4088 16.5024 19.76 16.076 19.76H5.9724C5.546 19.76 5.2002 19.4088 5.2002 18.9757ZM21.042 19.76H17.4566C17.597 19.5118 17.6802 19.2239 17.6802 18.915V18.7037C17.6802 17.1009 16.9756 15.6617 15.8654 14.6953C15.9278 14.6926 15.9876 14.69 16.05 14.69H17.6464C19.963 14.69 21.8402 16.5965 21.8402 18.9493C21.8402 19.3982 21.4814 19.76 21.042 19.76ZM16.4322 13C15.6262 13 14.8982 12.6673 14.3704 12.1312C14.8826 11.4288 15.1842 10.5601 15.1842 9.61999C15.1842 8.9123 15.0126 8.24422 14.7084 7.65801C15.192 7.29888 15.7874 7.08499 16.4322 7.08499C18.0416 7.08499 19.3442 8.40794 19.3442 10.0425C19.3442 11.677 18.0416 13 16.4322 13Z" fill="white"/>
</g>
<defs>
<clipPath id="clip0_507_179">
<rect width="16.64" height="13.52" fill="white" transform="translate(5.2002 6.23999)"/>
</clipPath>
</defs>
</svg>
