<svg width="42" height="42" viewBox="0 0 42 42" fill="none" xmlns="http://www.w3.org/2000/svg">
<circle cx="21" cy="21" r="21" fill="white"/>
<path d="M42 21C42 32.6008 32.6008 42 21 42C18.8323 42 16.7492 41.6698 14.7847 41.0601C15.6399 39.6629 16.9185 37.3766 17.3927 35.556C17.6468 34.5738 18.6968 30.5601 18.6968 30.5601C19.3827 31.8641 21.381 32.9734 23.5065 32.9734C29.8403 32.9734 34.4044 27.1476 34.4044 19.9077C34.4044 12.9726 28.7395 7.78186 21.4573 7.78186C12.3968 7.78186 7.57863 13.8617 7.57863 20.4919C7.57863 23.5742 9.22137 27.4101 11.8379 28.6294C12.2359 28.8157 12.4476 28.731 12.5407 28.35C12.6085 28.0621 12.9641 26.631 13.125 25.9706C13.1758 25.7589 13.1504 25.5726 12.981 25.3694C12.1258 24.3109 11.4315 22.3802 11.4315 20.5766C11.4315 15.9448 14.9371 11.4653 20.9153 11.4653C26.0722 11.4653 29.6879 14.9794 29.6879 20.0093C29.6879 25.6911 26.8173 29.6286 23.0831 29.6286C21.0254 29.6286 19.4758 27.9266 19.9754 25.8351C20.5681 23.3371 21.7113 20.6444 21.7113 18.8407C21.7113 17.2319 20.8476 15.8855 19.0524 15.8855C16.944 15.8855 15.2504 18.0617 15.2504 20.9831C15.2504 22.846 15.877 24.0992 15.877 24.0992C15.877 24.0992 13.8024 32.8887 13.4214 34.5315C12.998 36.3435 13.1673 38.9008 13.3452 40.5605C5.5379 37.5036 0 29.8996 0 21C0 9.39919 9.39919 0 21 0C32.6008 0 42 9.39919 42 21Z" fill="#99C4E8"/>
</svg>
