<svg width="21"  viewBox="0 0 26 25" fill="none" xmlns="http://www.w3.org/2000/svg">
<g clip-path="url(#clip0_396_440)">
<path d="M13 25C16.4478 25 19.7544 23.683 22.1924 21.3388C24.6304 18.9946 26 15.8152 26 12.5C26 9.18479 24.6304 6.00537 22.1924 3.66117C19.7544 1.31696 16.4478 0 13 0C9.55219 0 6.24558 1.31696 3.80761 3.66117C1.36964 6.00537 0 9.18479 0 12.5C0 15.8152 1.36964 18.9946 3.80761 21.3388C6.24558 23.683 9.55219 25 13 25ZM11.7812 16.7969V13.6719H8.53125C7.85586 13.6719 7.3125 13.1494 7.3125 12.5C7.3125 11.8506 7.85586 11.3281 8.53125 11.3281H11.7812V8.20312C11.7812 7.55371 12.3246 7.03125 13 7.03125C13.6754 7.03125 14.2188 7.55371 14.2188 8.20312V11.3281H17.4688C18.1441 11.3281 18.6875 11.8506 18.6875 12.5C18.6875 13.1494 18.1441 13.6719 17.4688 13.6719H14.2188V16.7969C14.2188 17.4463 13.6754 17.9688 13 17.9688C12.3246 17.9688 11.7812 17.4463 11.7812 16.7969Z" fill="#08C19D"/>
</g>
<defs>
<clipPath id="clip0_396_440">
<rect width="26" height="25" fill="white"/>
</clipPath>
</defs>
</svg>
