<svg width="21" viewBox="0 0 26 25" fill="none" xmlns="http://www.w3.org/2000/svg">
<g clip-path="url(#clip0_396_436)">
<path d="M13 0C16.4478 0 19.7544 1.31696 22.1924 3.66117C24.6304 6.00537 26 9.18479 26 12.5C26 15.8152 24.6304 18.9946 22.1924 21.3388C19.7544 23.683 16.4478 25 13 25C9.55219 25 6.24558 23.683 3.80761 21.3388C1.36964 18.9946 0 15.8152 0 12.5C0 9.18479 1.36964 6.00537 3.80761 3.66117C6.24558 1.31696 9.55219 0 13 0ZM11.7812 5.85938V12.5C11.7812 12.8906 11.9844 13.2568 12.3246 13.4766L17.1996 16.6016C17.7582 16.9629 18.5148 16.8164 18.8906 16.2744C19.2664 15.7324 19.1141 15.0098 18.5504 14.6484L14.2188 11.875V5.85938C14.2188 5.20996 13.6754 4.6875 13 4.6875C12.3246 4.6875 11.7812 5.20996 11.7812 5.85938Z" fill="#08C19D"/>
</g>
<defs>
<clipPath id="clip0_396_436">
<rect width="26" height="25" fill="white"/>
</clipPath>
</defs>
</svg>
